<svg width="16" height="16" viewBox="0 0 16 16" fill="none" xmlns="http://www.w3.org/2000/svg">
<path d="M10.7092 13.2458C10.8955 13.0584 11 12.805 11 12.5408C11 12.2766 10.8955 12.0232 10.7092 11.8358L7.16922 8.2458L10.7092 4.7058C10.8955 4.51844 11 4.26498 11 4.0008C11 3.73661 10.8955 3.48316 10.7092 3.2958C10.6163 3.20207 10.5057 3.12768 10.3838 3.07691C10.2619 3.02614 10.1312 3 9.99922 3C9.8672 3 9.7365 3.02614 9.61464 3.07691C9.49278 3.12768 9.38218 3.20207 9.28922 3.2958L5.04922 7.5358C4.95549 7.62876 4.88109 7.73936 4.83033 7.86122C4.77956 7.98308 4.75342 8.11379 4.75342 8.2458C4.75342 8.37781 4.77956 8.50852 4.83033 8.63037C4.88109 8.75223 4.95549 8.86283 5.04922 8.9558L9.28922 13.2458C9.38218 13.3395 9.49278 13.4139 9.61464 13.4647C9.7365 13.5155 9.8672 13.5416 9.99922 13.5416C10.1312 13.5416 10.2619 13.5155 10.3838 13.4647C10.5057 13.4139 10.6163 13.3395 10.7092 13.2458Z" fill="#959DA5"/>
</svg>
